<svg width="35" height="19" viewBox="0 0 35 19" fill="none" xmlns="http://www.w3.org/2000/svg">
<path d="M6.79235 16.0768C7.03493 15.9566 7.19019 15.7114 7.19019 15.4422C7.19019 15.173 7.03493 14.9278 6.79235 14.8076L1.03826 11.9518C0.815081 11.8413 0.553091 11.8557 0.339617 11.9855C0.126143 12.1153 -2.90853e-07 12.3461 -2.80135e-07 12.5912L-3.11084e-08 18.2883C-2.03908e-08 18.5335 0.130995 18.7643 0.339617 18.8941C0.553091 19.0239 0.815082 19.0335 1.03826 18.9277L6.79235 16.0768ZM1.4361 13.7403L4.86623 15.4374L1.4361 17.1345L1.4361 13.7403ZM21.0951 15.4374C21.0951 14.4903 20.7167 13.5864 20.0423 12.9182C19.3679 12.2499 18.4509 11.8749 17.5 11.8749C16.5491 11.8749 15.6321 12.2499 14.9577 12.9182C14.2833 13.5864 13.9049 14.4951 13.9049 15.4374C13.9049 16.3797 14.2833 17.2883 14.9577 17.9566C15.6321 18.6249 16.5491 18.9999 17.5 18.9999C18.4509 18.9999 19.3679 18.6249 20.0423 17.9566C20.7167 17.2883 21.0951 16.3845 21.0951 15.4374ZM15.341 15.4374C15.341 14.8701 15.569 14.3268 15.9717 13.923C16.3744 13.5239 16.9275 13.298 17.5 13.298C18.0725 13.298 18.6207 13.5239 19.0283 13.923C19.431 14.322 19.659 14.8701 19.659 15.4374C19.659 16.0047 19.431 16.5479 19.0283 16.9518C18.6256 17.3508 18.0725 17.5768 17.5 17.5768C16.9275 17.5768 16.3793 17.3508 15.9717 16.9518C15.569 16.5528 15.341 16.0047 15.341 15.4374ZM35 18.2883L35 12.5864C35 12.1922 34.6798 11.8749 34.282 11.8749L28.5279 11.8749C28.13 11.8749 27.8098 12.1922 27.8098 12.5864L27.8098 18.2883C27.8098 18.6825 28.13 18.9999 28.5279 18.9999L34.282 18.9999C34.6798 18.9999 35 18.6825 35 18.2883ZM29.2459 17.5768L29.2459 13.298L33.5639 13.298L33.5639 17.5768L29.2459 17.5768ZM30.6869 6.17303L18.218 6.17303L18.218 10.2115C18.218 10.6057 17.8978 10.923 17.5 10.923C17.1022 10.923 16.782 10.6057 16.782 10.2115L16.782 6.17303L4.31314 6.17303L4.31314 10.2115C4.31314 10.6057 3.99293 10.923 3.59509 10.923C3.19726 10.923 2.87704 10.6057 2.87704 10.2115L2.87704 5.4615C2.87704 5.06727 3.19725 4.74996 3.59509 4.74996L16.782 4.74996L16.782 0.711532C16.782 0.317304 17.1022 -7.47559e-07 17.5 -7.64949e-07C17.8978 -7.82339e-07 18.218 0.317304 18.218 0.711532L18.218 4.74996L31.4049 4.74996C31.8027 4.74996 32.123 5.06727 32.123 5.46149L32.123 10.2115C32.123 10.6057 31.8027 10.923 31.4049 10.923C31.0071 10.923 30.6869 10.6057 30.6869 10.2115L30.6869 6.17303Z" fill="white"/>
</svg>
